<svg width="131" height="15" viewBox="0 0 131 15" fill="none" xmlns="http://www.w3.org/2000/svg">
<path d="M10.7227 15H0.673828V0.996094H10.9375C12.7604 0.996094 14.2611 1.08073 15.4395 1.25C16.6178 1.41276 17.526 1.67318 18.1641 2.03125C18.8021 2.38281 19.235 2.83203 19.4629 3.37891C19.6908 3.92578 19.8047 4.58008 19.8047 5.3418C19.7852 5.94076 19.6191 6.4388 19.3066 6.83594C19.0007 7.22656 18.6393 7.51953 18.2227 7.71484C17.8125 7.90365 17.4512 7.99805 17.1387 7.99805C17.4447 7.99805 17.8027 8.0599 18.2129 8.18359C18.623 8.30078 19.0202 8.47331 19.4043 8.70117C19.7949 8.92904 20.1172 9.20573 20.3711 9.53125C20.6315 9.85677 20.7617 10.2279 20.7617 10.6445C20.7617 11.1914 20.6966 11.6927 20.5664 12.1484C20.4427 12.6042 20.1888 13.0078 19.8047 13.3594C19.4271 13.7109 18.8672 14.0104 18.125 14.2578C17.3828 14.4987 16.4095 14.6842 15.2051 14.8145C14.0072 14.9382 12.513 15 10.7227 15ZM10.3906 6.79688C11.25 6.79688 11.9141 6.75456 12.3828 6.66992C12.8581 6.58529 13.1868 6.45833 13.3691 6.28906C13.5514 6.11328 13.6426 5.89193 13.6426 5.625C13.6426 5.35156 13.5514 5.13021 13.3691 4.96094C13.1868 4.78516 12.8581 4.6582 12.3828 4.58008C11.9141 4.49544 11.25 4.45312 10.3906 4.45312H6.55273V6.79688H10.3906ZM10.3906 11.543C11.2695 11.543 11.9824 11.5202 12.5293 11.4746C13.0762 11.429 13.4766 11.3249 13.7305 11.1621C13.9844 10.9993 14.1113 10.7357 14.1113 10.3711C14.1113 10.0065 13.9844 9.74284 13.7305 9.58008C13.4766 9.41081 13.0762 9.30664 12.5293 9.26758C11.9824 9.22201 11.2695 9.19922 10.3906 9.19922H6.55273V11.543H10.3906ZM43.916 15H37.959L36.6406 12.7051H27.8027L26.4844 15H20.5273L29.4922 0.996094H34.9512L43.916 15ZM34.6582 9.23828L32.2266 4.99023L29.7852 9.23828H34.6582ZM61.1426 15H44.9512V11.543L54.2188 4.45312H44.9512V0.996094H61.1426V4.45312L51.8652 11.543H61.1426V15ZM85.5566 15H79.5996L78.2812 12.7051H69.4434L68.125 15H62.168L71.1328 0.996094H76.5918L85.5566 15ZM76.2988 9.23828L73.8672 4.99023L71.4258 9.23828H76.2988ZM109.248 15H103.291L101.973 12.7051H93.1348L91.8164 15H85.8594L94.8242 0.996094H100.283L109.248 15ZM99.9902 9.23828L97.5586 4.99023L95.1172 9.23828H99.9902ZM130.098 15H124.541C124.287 14.6484 124.108 14.1992 124.004 13.6523C123.913 13.2292 123.776 12.8158 123.594 12.4121C123.411 12.002 123.096 11.6634 122.646 11.3965C122.204 11.123 121.543 10.9766 120.664 10.957H116.846V15H110.967V0.986328H120.527C122.812 0.986328 124.655 1.15885 126.055 1.50391C127.461 1.84245 128.486 2.37956 129.131 3.11523C129.775 3.8444 130.098 4.79818 130.098 5.97656C130.098 6.95964 129.873 7.78646 129.424 8.45703C128.981 9.1276 128.278 9.6582 127.314 10.0488C128.245 10.4329 128.848 10.8952 129.121 11.4355C129.401 11.9694 129.574 12.5586 129.639 13.2031C129.704 13.776 129.857 14.375 130.098 15ZM116.846 7.5L120.205 7.49023C121.143 7.49023 121.882 7.44792 122.422 7.36328C122.962 7.27865 123.359 7.16471 123.613 7.02148C123.874 6.87174 124.04 6.70898 124.111 6.5332C124.183 6.35091 124.219 6.16536 124.219 5.97656C124.219 5.78776 124.183 5.60221 124.111 5.41992C124.04 5.23763 123.874 5.07487 123.613 4.93164C123.359 4.7819 122.962 4.66471 122.422 4.58008C121.882 4.49544 121.143 4.45312 120.205 4.45312H116.846V7.5Z" fill="#674EFF"/>
</svg>
