<svg width="20" height="21" viewBox="0 0 20 21" fill="none" xmlns="http://www.w3.org/2000/svg">
<path d="M0.666504 10.2041L0.0613385 9.96687C0.00155908 10.1194 0.00155908 10.2888 0.0613385 10.4413L0.666504 10.2041ZM19.3332 10.2041L19.9383 10.4413C19.9981 10.2888 19.9981 10.1194 19.9383 9.96686L19.3332 10.2041ZM9.99982 16.3568C6.91344 16.3568 4.74381 14.7891 3.32064 13.1755C2.60895 12.3686 2.09314 11.5593 1.75559 10.9514C1.58719 10.6482 1.46418 10.397 1.38418 10.2238C1.3442 10.1372 1.31503 10.0704 1.29637 10.0264C1.28704 10.0044 1.28034 9.98822 1.27623 9.97816C1.27418 9.97312 1.27278 9.96963 1.27202 9.96773C1.27164 9.96678 1.27142 9.96623 1.27136 9.96609C1.27133 9.96601 1.27134 9.96604 1.2714 9.96617C1.27142 9.96623 1.27149 9.96641 1.2715 9.96644C1.27158 9.96664 1.27167 9.96687 0.666504 10.2041C0.0613385 10.4413 0.0614473 10.4416 0.0615663 10.4419C0.0616196 10.442 0.0617494 10.4424 0.0618563 10.4426C0.0620704 10.4432 0.062326 10.4438 0.0626231 10.4446C0.0632173 10.4461 0.0639779 10.448 0.0649054 10.4503C0.0667604 10.4549 0.0692836 10.4612 0.0724803 10.4691C0.0788733 10.4847 0.0879629 10.5067 0.0997917 10.5346C0.123445 10.5903 0.158079 10.6695 0.204037 10.769C0.295904 10.9679 0.433313 11.2481 0.619078 11.5826C0.989859 12.2503 1.55737 13.1416 2.34568 14.0354C3.9225 15.8232 6.41952 17.6568 9.99982 17.6568V16.3568ZM0.666504 10.2041C1.27167 10.4413 1.27158 10.4415 1.2715 10.4417C1.27149 10.4418 1.27142 10.4419 1.2714 10.442C1.27134 10.4421 1.27133 10.4422 1.27136 10.4421C1.27142 10.4419 1.27164 10.4414 1.27202 10.4404C1.27278 10.4385 1.27418 10.4351 1.27623 10.43C1.28034 10.42 1.28704 10.4037 1.29637 10.3818C1.31503 10.3378 1.3442 10.2709 1.38418 10.1844C1.46418 10.0112 1.58719 9.75998 1.75559 9.45673C2.09314 8.8489 2.60895 8.03959 3.32064 7.23268C4.74381 5.61911 6.91344 4.05137 9.99982 4.05137V2.75137C6.41952 2.75137 3.9225 4.58499 2.34568 6.37277C1.55737 7.26655 0.989859 8.15792 0.619078 8.82559C0.433313 9.16011 0.295904 9.44033 0.204037 9.63917C0.158079 9.73865 0.123445 9.81792 0.0997917 9.87362C0.0879629 9.90148 0.0788733 9.92345 0.0724803 9.93913C0.0692836 9.94697 0.0667604 9.95323 0.0649054 9.95787C0.0639779 9.96019 0.0632173 9.96211 0.0626231 9.96361C0.062326 9.96436 0.0620704 9.96501 0.0618563 9.96555C0.0617494 9.96582 0.0616196 9.96615 0.0615663 9.96629C0.0614473 9.96659 0.0613385 9.96687 0.666504 10.2041ZM9.99982 4.05137C13.0862 4.05137 15.2558 5.61911 16.679 7.23269C17.3907 8.03959 17.9065 8.8489 18.2441 9.45674C18.4125 9.75998 18.5355 10.0112 18.6155 10.1844C18.6555 10.2709 18.6846 10.3378 18.7033 10.3818C18.7126 10.4037 18.7193 10.42 18.7234 10.43C18.7255 10.4351 18.7269 10.4385 18.7277 10.4404C18.728 10.4414 18.7283 10.4419 18.7283 10.4421C18.7283 10.4422 18.7283 10.4421 18.7283 10.442C18.7283 10.4419 18.7282 10.4418 18.7282 10.4417C18.7281 10.4415 18.728 10.4413 19.3332 10.2041C19.9383 9.96686 19.9382 9.96659 19.9381 9.96628C19.9381 9.96615 19.9379 9.96582 19.9378 9.96555C19.9376 9.965 19.9373 9.96435 19.937 9.9636C19.9365 9.9621 19.9357 9.96019 19.9348 9.95787C19.9329 9.95323 19.9304 9.94696 19.9272 9.93912C19.9208 9.92345 19.9117 9.90147 19.8999 9.87362C19.8762 9.81792 19.8416 9.73865 19.7956 9.63917C19.7038 9.44032 19.5664 9.1601 19.3806 8.82559C19.0098 8.15791 18.4423 7.26654 17.654 6.37277C16.0771 4.58499 13.5801 2.75137 9.99982 2.75137V4.05137ZM19.3332 10.2041C18.728 9.96686 18.7281 9.96664 18.7282 9.96644C18.7282 9.96641 18.7283 9.96623 18.7283 9.96617C18.7283 9.96604 18.7283 9.96601 18.7283 9.96608C18.7283 9.96623 18.728 9.96678 18.7277 9.96773C18.7269 9.96963 18.7255 9.97312 18.7234 9.97815C18.7193 9.98822 18.7126 10.0044 18.7033 10.0264C18.6846 10.0704 18.6555 10.1372 18.6155 10.2238C18.5355 10.397 18.4125 10.6482 18.2441 10.9514C17.9065 11.5593 17.3907 12.3686 16.679 13.1755C15.2558 14.7891 13.0862 16.3568 9.99982 16.3568V17.6568C13.5801 17.6568 16.0771 15.8232 17.654 14.0354C18.4423 13.1416 19.0098 12.2503 19.3806 11.5826C19.5664 11.2481 19.7038 10.9679 19.7956 10.769C19.8416 10.6695 19.8762 10.5903 19.8999 10.5346C19.9117 10.5067 19.9208 10.4847 19.9272 10.4691C19.9304 10.4612 19.9329 10.4549 19.9348 10.4503C19.9357 10.448 19.9365 10.4461 19.937 10.4446C19.9373 10.4438 19.9376 10.4432 19.9378 10.4426C19.9379 10.4424 19.9381 10.442 19.9381 10.4419C19.9382 10.4416 19.9383 10.4413 19.3332 10.2041ZM9.99984 12.2752C8.89838 12.2752 7.98317 11.3604 7.98317 10.2041H6.68317C6.68317 12.0534 8.15578 13.5752 9.99984 13.5752V12.2752ZM12.0165 10.2041C12.0165 11.3604 11.1013 12.2752 9.99984 12.2752V13.5752C11.8439 13.5752 13.3165 12.0534 13.3165 10.2041H12.0165ZM9.99984 8.133C11.1013 8.133 12.0165 9.04782 12.0165 10.2041H13.3165C13.3165 8.35473 11.8439 6.833 9.99984 6.833V8.133ZM9.99984 6.833C8.15578 6.833 6.68317 8.35473 6.68317 10.2041H7.98317C7.98317 9.04782 8.89838 8.133 9.99984 8.133V6.833Z" fill="#999999"/>
</svg>
