<svg width="31" height="27" viewBox="0 0 31 27" fill="none" xmlns="http://www.w3.org/2000/svg">
<path d="M14.4668 1.10003L4.13345 1.10003M29.9668 23.8334L29.9668 7.30004C29.9668 6.15865 29.0415 5.23337 27.9001 5.23337L3.10012 5.23337C1.95873 5.23337 1.03345 6.15864 1.03345 7.30003L1.03345 23.8334C1.03345 24.9748 1.95873 25.9 3.10012 25.9L27.9001 25.9C29.0415 25.9 29.9668 24.9748 29.9668 23.8334ZM19.6334 19.7C17.3507 19.7 15.5001 17.8495 15.5001 15.5667C15.5001 13.2839 17.3507 11.4334 19.6334 11.4334C21.9162 11.4334 23.7668 13.2839 23.7668 15.5667C23.7668 17.8495 21.9162 19.7 19.6334 19.7Z" stroke="#403845" stroke-width="2.06667"/>
</svg>
