<svg width="20" height="20" viewBox="0 0 20 20" fill="none" xmlns="http://www.w3.org/2000/svg">
<path d="M9.99982 12.0167C6.90827 12.0167 4.73762 10.4778 3.3163 8.89851C2.60519 8.10838 2.08992 7.31605 1.75285 6.72121C1.58468 6.42444 1.46188 6.17862 1.38205 6.00929C1.34216 5.92467 1.31308 5.85932 1.29449 5.81643C1.2852 5.79499 1.27854 5.77918 1.27447 5.7694C1.27244 5.76451 1.27105 5.76114 1.27031 5.75932C1.26994 5.75841 1.26973 5.75789 1.26968 5.75777C1.26966 5.75771 1.26967 5.75774 1.26973 5.75788C1.26976 5.75795 1.26983 5.75813 1.26984 5.75817C1.26992 5.75837 1.27001 5.7586 0.666504 6C0.0629934 6.2414 0.0631055 6.24168 0.0632277 6.24199C0.0632822 6.24212 0.0634151 6.24245 0.0635242 6.24273C0.0637426 6.24327 0.0640025 6.24391 0.064304 6.24466C0.064907 6.24615 0.0656763 6.24805 0.0666128 6.25035C0.0684856 6.25494 0.0710268 6.26112 0.0742419 6.26885C0.0806717 6.2843 0.0897993 6.30592 0.101667 6.33331C0.125399 6.38808 0.160117 6.46595 0.206165 6.56363C0.298212 6.75888 0.435825 7.0339 0.621819 7.36212C0.993074 8.01728 1.56114 8.89162 2.35002 9.76816C3.92869 11.5222 6.4247 13.3167 9.99982 13.3167V12.0167ZM19.3332 6C18.7297 5.75859 18.7297 5.75837 18.7298 5.75816C18.7298 5.75813 18.7299 5.75795 18.7299 5.75788C18.73 5.75774 18.73 5.7577 18.73 5.75776C18.7299 5.75789 18.7297 5.75841 18.7294 5.75931C18.7286 5.76113 18.7272 5.76451 18.7252 5.7694C18.7211 5.77917 18.7145 5.79498 18.7052 5.81642C18.6866 5.85931 18.6575 5.92467 18.6176 6.00928C18.5378 6.17862 18.415 6.42443 18.2468 6.72121C17.9097 7.31605 17.3945 8.10838 16.6834 8.89851C15.262 10.4778 13.0914 12.0167 9.99982 12.0167V13.3167C13.5749 13.3167 16.0709 11.5222 17.6496 9.76816C18.4385 8.89162 19.0066 8.01729 19.3778 7.36213C19.5638 7.0339 19.7015 6.75888 19.7935 6.56363C19.8396 6.46595 19.8743 6.38808 19.898 6.33332C19.9099 6.30593 19.919 6.2843 19.9254 6.26885C19.9286 6.26112 19.9312 6.25494 19.9331 6.25035C19.934 6.24805 19.9348 6.24616 19.9354 6.24466C19.9357 6.24392 19.9359 6.24327 19.9361 6.24273C19.9363 6.24246 19.9364 6.24213 19.9364 6.24199C19.9366 6.24169 19.9367 6.24141 19.3332 6ZM10.6498 16L10.6498 12.6667L9.34982 12.6667L9.34984 16L10.6498 16ZM1.79279 13.793L4.45946 11.1263L3.54022 10.207L0.873551 12.8737L1.79279 13.793ZM15.5402 11.1263L18.2069 13.793L19.1261 12.8737L16.4595 10.207L15.5402 11.1263Z" fill="#999999"/>
</svg>
