<svg width="20" height="20" viewBox="0 0 20 20" stroke='currentColor' fill="none" xmlns="http://www.w3.org/2000/svg">
  <path
    d="M6.00033 5.99996V1.99996C6.00033 1.26358 6.59728 0.666626 7.33366 0.666626H18.0003C18.7367 0.666626 19.3337 1.26358 19.3337 1.99996V12.6666C19.3337 13.403 18.7367 14 18.0003 14H14.0003M6.00033 5.99996H2.00033C1.26395 5.99996 0.666992 6.59691 0.666992 7.33329V18C0.666992 18.7363 1.26395 19.3333 2.00033 19.3333H12.667C13.4034 19.3333 14.0003 18.7363 14.0003 18V14M6.00033 5.99996V9.33329M6.00033 5.99996H9.33366M14.0003 14H10.667M14.0003 14V10.6666M10.667 5.99996H14.0003V9.33329M6.00033 10.6666V14H9.33366"
    stroke-width="1.33333" />
</svg>