<svg width="12" height="9" viewBox="0 0 12 9" fill="none" xmlns="http://www.w3.org/2000/svg">
<path d="M3.7543 8.26057L3.75457 8.26079C3.96843 8.4314 4.23767 8.51722 4.51082 8.50183C4.78397 8.48644 5.04186 8.37092 5.2352 8.17737L5.2353 8.17728C6.16617 7.24441 7.04909 6.31925 7.92544 5.40079L7.93737 5.38829C8.80978 4.47396 9.67579 3.56634 10.5797 2.66045C10.7401 2.50471 10.8499 2.30421 10.8947 2.08509C10.9397 1.86518 10.917 1.63682 10.8298 1.43002C10.7426 1.22322 10.5948 1.04764 10.4059 0.92636C10.2171 0.805083 9.99595 0.743776 9.7716 0.750499L9.77909 1.00039L9.77076 0.750526C9.48207 0.760144 9.20847 0.881692 9.00782 1.08939C8.06716 2.03212 7.1669 2.97255 6.27299 3.90634C5.63582 4.57194 5.00187 5.23417 4.35883 5.89145L2.55773 4.45352L2.40156 4.64874L2.55754 4.45336L2.55762 4.45343C2.44354 4.36219 2.31262 4.29432 2.17233 4.25367C2.03199 4.213 1.88501 4.20038 1.73979 4.21651C1.59457 4.23265 1.45395 4.27722 1.32595 4.34771C1.19796 4.41819 1.0851 4.51318 0.993818 4.62729C0.90254 4.74138 0.834629 4.87234 0.793962 5.01269C0.753296 5.15303 0.740669 5.30001 0.756805 5.44523C0.789393 5.73852 0.937155 6.00686 1.16759 6.1912L3.7543 8.26057Z" fill="white" stroke="white" stroke-width="0.5"/>
</svg>
