<svg width="376" height="111" viewBox="0 0 376 111" fill="none" xmlns="http://www.w3.org/2000/svg">
<path d="M79.4453 65H59.3477V36.9922H79.875C83.5208 36.9922 86.5221 37.1615 88.8789 37.5C91.2357 37.8255 93.0521 38.3464 94.3281 39.0625C95.6042 39.7656 96.4701 40.6641 96.9258 41.7578C97.3815 42.8516 97.6094 44.1602 97.6094 45.6836C97.5703 46.8815 97.2383 47.8776 96.6133 48.6719C96.0013 49.4531 95.2786 50.0391 94.4453 50.4297C93.625 50.8073 92.9023 50.9961 92.2773 50.9961C92.8893 50.9961 93.6055 51.1198 94.4258 51.3672C95.2461 51.6016 96.0404 51.9466 96.8086 52.4023C97.5898 52.8581 98.2344 53.4115 98.7422 54.0625C99.263 54.7135 99.5234 55.4557 99.5234 56.2891C99.5234 57.3828 99.3932 58.3854 99.1328 59.2969C98.8854 60.2083 98.3776 61.0156 97.6094 61.7188C96.8542 62.4219 95.7344 63.0208 94.25 63.5156C92.7656 63.9974 90.819 64.3685 88.4102 64.6289C86.0143 64.8763 83.026 65 79.4453 65ZM78.7812 48.5938C80.5 48.5938 81.8281 48.5091 82.7656 48.3398C83.7161 48.1706 84.3737 47.9167 84.7383 47.5781C85.1029 47.2266 85.2852 46.7839 85.2852 46.25C85.2852 45.7031 85.1029 45.2604 84.7383 44.9219C84.3737 44.5703 83.7161 44.3164 82.7656 44.1602C81.8281 43.9909 80.5 43.9062 78.7812 43.9062H71.1055V48.5938H78.7812ZM78.7812 58.0859C80.5391 58.0859 81.9648 58.0404 83.0586 57.9492C84.1523 57.8581 84.9531 57.6497 85.4609 57.3242C85.9688 56.9987 86.2227 56.4714 86.2227 55.7422C86.2227 55.013 85.9688 54.4857 85.4609 54.1602C84.9531 53.8216 84.1523 53.6133 83.0586 53.5352C81.9648 53.444 80.5391 53.3984 78.7812 53.3984H71.1055V58.0859H78.7812ZM145.832 65H133.918L131.281 60.4102H113.605L110.969 65H99.0547L116.984 36.9922H127.902L145.832 65ZM127.316 53.4766L122.453 44.9805L117.57 53.4766H127.316ZM180.285 65H147.902V58.0859L166.438 43.9062H147.902V36.9922H180.285V43.9062L161.73 58.0859H180.285V65ZM229.113 65H217.199L214.562 60.4102H196.887L194.25 65H182.336L200.266 36.9922H211.184L229.113 65ZM210.598 53.4766L205.734 44.9805L200.852 53.4766H210.598ZM276.496 65H264.582L261.945 60.4102H244.27L241.633 65H229.719L247.648 36.9922H258.566L276.496 65ZM257.98 53.4766L253.117 44.9805L248.234 53.4766H257.98ZM318.195 65H307.082C306.574 64.2969 306.216 63.3984 306.008 62.3047C305.826 61.4583 305.552 60.6315 305.188 59.8242C304.823 59.0039 304.191 58.3268 303.293 57.793C302.408 57.2461 301.086 56.9531 299.328 56.9141H291.691V65H279.934V36.9727H299.055C303.625 36.9727 307.31 37.3177 310.109 38.0078C312.922 38.6849 314.973 39.7591 316.262 41.2305C317.551 42.6888 318.195 44.5964 318.195 46.9531C318.195 48.9193 317.746 50.5729 316.848 51.9141C315.962 53.2552 314.556 54.3164 312.629 55.0977C314.491 55.8659 315.695 56.7904 316.242 57.8711C316.802 58.9388 317.147 60.1172 317.277 61.4062C317.408 62.5521 317.714 63.75 318.195 65ZM291.691 50L298.41 49.9805C300.285 49.9805 301.763 49.8958 302.844 49.7266C303.924 49.5573 304.719 49.3294 305.227 49.043C305.747 48.7435 306.079 48.418 306.223 48.0664C306.366 47.7018 306.438 47.3307 306.438 46.9531C306.438 46.5755 306.366 46.2044 306.223 45.8398C306.079 45.4753 305.747 45.1497 305.227 44.8633C304.719 44.5638 303.924 44.3294 302.844 44.1602C301.763 43.9909 300.285 43.9062 298.41 43.9062H291.691V50Z" fill="#674EFF"/>
<path d="M75.4638 87.672H79.3998C79.8905 87.672 80.3438 87.7307 80.7598 87.848C81.1865 87.9653 81.5491 88.1413 81.8478 88.376C82.1571 88.6 82.3971 88.8933 82.5678 89.256C82.7491 89.608 82.8398 90.024 82.8398 90.504C82.8398 91.1547 82.6585 91.688 82.2958 92.104C81.9331 92.5093 81.4638 92.808 80.8878 93V93.032C81.2291 93.0533 81.5491 93.144 81.8478 93.304C82.1465 93.4533 82.4025 93.656 82.6158 93.912C82.8398 94.1573 83.0158 94.4453 83.1438 94.776C83.2718 95.1067 83.3358 95.464 83.3358 95.848C83.3358 96.36 83.2291 96.8133 83.0158 97.208C82.8131 97.592 82.5305 97.9173 82.1678 98.184C81.8051 98.4507 81.3838 98.6533 80.9038 98.792C80.4238 98.9307 79.9065 99 79.3518 99H75.4638V87.672ZM76.9998 92.376H79.0958C79.3838 92.376 79.6558 92.3493 79.9118 92.296C80.1678 92.232 80.3918 92.1307 80.5838 91.992C80.7758 91.8533 80.9251 91.6773 81.0318 91.464C81.1491 91.2507 81.2078 90.9893 81.2078 90.68C81.2078 90.232 81.0638 89.8427 80.7758 89.512C80.4878 89.1813 80.0345 89.016 79.4158 89.016H76.9998V92.376ZM76.9998 97.656H79.2558C79.4905 97.656 79.7465 97.6347 80.0238 97.592C80.3118 97.5387 80.5785 97.4427 80.8238 97.304C81.0691 97.1547 81.2771 96.9573 81.4478 96.712C81.6185 96.4667 81.7038 96.1413 81.7038 95.736C81.7038 95.064 81.4851 94.5627 81.0478 94.232C80.6105 93.8907 80.0185 93.72 79.2718 93.72H76.9998V97.656ZM91.8939 99H90.4539V97.832H90.4219C90.2406 98.2373 89.9259 98.568 89.4779 98.824C89.0299 99.0693 88.5126 99.192 87.9259 99.192C87.5526 99.192 87.2006 99.1333 86.8699 99.016C86.5393 98.9093 86.2459 98.7387 85.9899 98.504C85.7446 98.2693 85.5473 97.9707 85.3979 97.608C85.2486 97.2347 85.1739 96.7973 85.1739 96.296V91.416H86.6139V95.896C86.6139 96.248 86.6619 96.552 86.7579 96.808C86.8539 97.0533 86.9819 97.256 87.1419 97.416C87.3019 97.5653 87.4833 97.6773 87.6859 97.752C87.8993 97.816 88.1179 97.848 88.3419 97.848C88.6406 97.848 88.9179 97.8 89.1739 97.704C89.4299 97.608 89.6539 97.4587 89.8459 97.256C90.0379 97.0427 90.1873 96.776 90.2939 96.456C90.4006 96.136 90.4539 95.7573 90.4539 95.32V91.416H91.8939V99ZM93.1526 91.416H94.8166L97.0726 97.336H97.1046L99.2486 91.416H100.801L97.2006 100.632C97.0726 100.963 96.9392 101.261 96.8006 101.528C96.6619 101.805 96.4966 102.04 96.3046 102.232C96.1126 102.424 95.8779 102.573 95.6006 102.68C95.3339 102.787 95.0032 102.84 94.6086 102.84C94.3952 102.84 94.1766 102.824 93.9526 102.792C93.7392 102.771 93.5312 102.717 93.3286 102.632L93.5046 101.32C93.7926 101.437 94.0806 101.496 94.3686 101.496C94.5926 101.496 94.7792 101.464 94.9286 101.4C95.0886 101.347 95.2219 101.261 95.3286 101.144C95.4459 101.037 95.5419 100.909 95.6166 100.76C95.6912 100.611 95.7659 100.44 95.8406 100.248L96.3046 99.048L93.1526 91.416ZM101.869 101.112H100.557L101.661 97.176H103.213L101.869 101.112ZM113.815 93.32C113.645 93.1067 113.431 92.9307 113.175 92.792C112.93 92.6427 112.626 92.568 112.263 92.568C111.922 92.568 111.623 92.6427 111.367 92.792C111.122 92.9307 110.999 93.1387 110.999 93.416C110.999 93.64 111.069 93.8213 111.207 93.96C111.357 94.0987 111.527 94.2107 111.719 94.296C111.922 94.3813 112.135 94.4453 112.359 94.488C112.583 94.5307 112.775 94.568 112.935 94.6C113.245 94.6747 113.533 94.7653 113.799 94.872C114.077 94.9787 114.311 95.1173 114.503 95.288C114.706 95.4587 114.861 95.6667 114.967 95.912C115.085 96.1573 115.143 96.456 115.143 96.808C115.143 97.2347 115.053 97.6027 114.871 97.912C114.69 98.2107 114.455 98.456 114.167 98.648C113.879 98.84 113.549 98.9787 113.175 99.064C112.813 99.1493 112.445 99.192 112.071 99.192C111.442 99.192 110.887 99.096 110.407 98.904C109.938 98.712 109.517 98.36 109.143 97.848L110.231 96.952C110.466 97.1867 110.727 97.3947 111.015 97.576C111.303 97.7573 111.655 97.848 112.071 97.848C112.253 97.848 112.434 97.832 112.615 97.8C112.807 97.7573 112.973 97.6987 113.111 97.624C113.261 97.5387 113.378 97.4373 113.463 97.32C113.559 97.192 113.607 97.048 113.607 96.888C113.607 96.6747 113.538 96.4987 113.399 96.36C113.271 96.2213 113.111 96.1147 112.919 96.04C112.738 95.9547 112.541 95.8907 112.327 95.848C112.125 95.7947 111.943 95.752 111.783 95.72C111.474 95.6453 111.181 95.56 110.903 95.464C110.626 95.368 110.381 95.24 110.167 95.08C109.954 94.92 109.783 94.7173 109.655 94.472C109.527 94.2267 109.463 93.9227 109.463 93.56C109.463 93.1653 109.543 92.824 109.703 92.536C109.874 92.2373 110.093 91.992 110.359 91.8C110.637 91.608 110.946 91.464 111.287 91.368C111.639 91.272 111.991 91.224 112.343 91.224C112.855 91.224 113.346 91.32 113.815 91.512C114.285 91.704 114.658 92.024 114.935 92.472L113.815 93.32ZM117.981 95.736C117.981 96.0667 118.05 96.3707 118.189 96.648C118.338 96.9147 118.53 97.144 118.765 97.336C118.999 97.528 119.271 97.6773 119.581 97.784C119.89 97.8907 120.21 97.944 120.541 97.944C120.989 97.944 121.378 97.8427 121.709 97.64C122.039 97.4267 122.343 97.1493 122.621 96.808L123.709 97.64C122.909 98.6747 121.789 99.192 120.349 99.192C119.751 99.192 119.207 99.0907 118.717 98.888C118.237 98.6853 117.826 98.408 117.485 98.056C117.154 97.6933 116.898 97.272 116.717 96.792C116.535 96.3013 116.445 95.7733 116.445 95.208C116.445 94.6427 116.541 94.12 116.733 93.64C116.935 93.1493 117.207 92.728 117.549 92.376C117.901 92.0133 118.317 91.7307 118.797 91.528C119.277 91.3253 119.799 91.224 120.365 91.224C121.037 91.224 121.602 91.3413 122.061 91.576C122.53 91.8107 122.914 92.12 123.213 92.504C123.511 92.8773 123.725 93.304 123.853 93.784C123.991 94.2533 124.061 94.7333 124.061 95.224V95.736H117.981ZM122.525 94.584C122.514 94.264 122.461 93.9707 122.365 93.704C122.279 93.4373 122.146 93.208 121.965 93.016C121.783 92.8133 121.554 92.6587 121.277 92.552C121.01 92.4347 120.695 92.376 120.333 92.376C119.981 92.376 119.655 92.4453 119.357 92.584C119.069 92.712 118.823 92.8827 118.621 93.096C118.418 93.3093 118.258 93.5493 118.141 93.816C118.034 94.072 117.981 94.328 117.981 94.584H122.525ZM125.895 86.904H127.335V99H125.895V86.904ZM129.739 86.904H131.179V99H129.739V86.904ZM134.463 101.112H133.151L134.255 97.176H135.807L134.463 101.112ZM142.409 92.344C142.814 91.9707 143.284 91.6933 143.817 91.512C144.35 91.32 144.884 91.224 145.417 91.224C145.972 91.224 146.446 91.2933 146.841 91.432C147.246 91.5707 147.577 91.7573 147.833 91.992C148.089 92.2267 148.276 92.4987 148.393 92.808C148.521 93.1067 148.585 93.4213 148.585 93.752V97.624C148.585 97.8907 148.59 98.136 148.601 98.36C148.612 98.584 148.628 98.7973 148.649 99H147.369C147.337 98.616 147.321 98.232 147.321 97.848H147.289C146.969 98.3387 146.59 98.6853 146.153 98.888C145.716 99.0907 145.209 99.192 144.633 99.192C144.281 99.192 143.945 99.144 143.625 99.048C143.305 98.952 143.022 98.808 142.777 98.616C142.542 98.424 142.356 98.1893 142.217 97.912C142.078 97.624 142.009 97.2933 142.009 96.92C142.009 96.4293 142.116 96.0187 142.329 95.688C142.553 95.3573 142.852 95.0907 143.225 94.888C143.609 94.6747 144.052 94.5253 144.553 94.44C145.065 94.344 145.609 94.296 146.185 94.296H147.241V93.976C147.241 93.784 147.204 93.592 147.129 93.4C147.054 93.208 146.942 93.0373 146.793 92.888C146.644 92.728 146.457 92.6053 146.233 92.52C146.009 92.424 145.742 92.376 145.433 92.376C145.156 92.376 144.91 92.4027 144.697 92.456C144.494 92.5093 144.308 92.5787 144.137 92.664C143.966 92.7387 143.812 92.8293 143.673 92.936C143.534 93.0427 143.401 93.144 143.273 93.24L142.409 92.344ZM146.473 95.352C146.132 95.352 145.78 95.3733 145.417 95.416C145.065 95.448 144.74 95.5173 144.441 95.624C144.153 95.7307 143.913 95.88 143.721 96.072C143.54 96.264 143.449 96.5093 143.449 96.808C143.449 97.2453 143.593 97.56 143.881 97.752C144.18 97.944 144.58 98.04 145.081 98.04C145.476 98.04 145.812 97.976 146.089 97.848C146.366 97.7093 146.59 97.5333 146.761 97.32C146.932 97.1067 147.054 96.872 147.129 96.616C147.204 96.3493 147.241 96.088 147.241 95.832V95.352H146.473ZM150.674 91.416H152.114V92.584H152.146C152.327 92.1787 152.642 91.8533 153.09 91.608C153.538 91.352 154.055 91.224 154.642 91.224C155.005 91.224 155.351 91.2827 155.682 91.4C156.023 91.5067 156.317 91.6773 156.562 91.912C156.818 92.1467 157.021 92.4507 157.17 92.824C157.319 93.1867 157.394 93.6187 157.394 94.12V99H155.954V94.52C155.954 94.168 155.906 93.8693 155.81 93.624C155.714 93.368 155.586 93.1653 155.426 93.016C155.266 92.856 155.079 92.744 154.866 92.68C154.663 92.6053 154.45 92.568 154.226 92.568C153.927 92.568 153.65 92.616 153.394 92.712C153.138 92.808 152.914 92.9627 152.722 93.176C152.53 93.3787 152.381 93.64 152.274 93.96C152.167 94.28 152.114 94.6587 152.114 95.096V99H150.674V91.416ZM167.165 99H165.725V97.912H165.693C165.415 98.3173 165.031 98.632 164.541 98.856C164.061 99.08 163.565 99.192 163.053 99.192C162.466 99.192 161.933 99.0907 161.453 98.888C160.983 98.6853 160.578 98.4027 160.237 98.04C159.906 97.6773 159.65 97.256 159.469 96.776C159.287 96.296 159.197 95.7733 159.197 95.208C159.197 94.6427 159.287 94.12 159.469 93.64C159.65 93.1493 159.906 92.728 160.237 92.376C160.578 92.0133 160.983 91.7307 161.453 91.528C161.933 91.3253 162.466 91.224 163.053 91.224C163.597 91.224 164.109 91.3413 164.589 91.576C165.069 91.8 165.437 92.1093 165.693 92.504H165.725V86.904H167.165V99ZM163.229 97.848C163.613 97.848 163.959 97.784 164.269 97.656C164.578 97.5173 164.839 97.336 165.053 97.112C165.266 96.8773 165.431 96.6 165.549 96.28C165.666 95.9493 165.725 95.592 165.725 95.208C165.725 94.824 165.666 94.472 165.549 94.152C165.431 93.8213 165.266 93.544 165.053 93.32C164.839 93.0853 164.578 92.904 164.269 92.776C163.959 92.6373 163.613 92.568 163.229 92.568C162.845 92.568 162.498 92.6373 162.189 92.776C161.879 92.904 161.618 93.0853 161.405 93.32C161.191 93.544 161.026 93.8213 160.909 94.152C160.791 94.472 160.733 94.824 160.733 95.208C160.733 95.592 160.791 95.9493 160.909 96.28C161.026 96.6 161.191 96.8773 161.405 97.112C161.618 97.336 161.879 97.5173 162.189 97.656C162.498 97.784 162.845 97.848 163.229 97.848ZM177.863 92.664H175.799V96.104C175.799 96.3173 175.804 96.5307 175.815 96.744C175.826 96.9467 175.863 97.1333 175.927 97.304C176.002 97.464 176.108 97.5973 176.247 97.704C176.396 97.8 176.61 97.848 176.887 97.848C177.058 97.848 177.234 97.832 177.415 97.8C177.596 97.768 177.762 97.7093 177.911 97.624V98.936C177.74 99.032 177.516 99.096 177.239 99.128C176.972 99.1707 176.764 99.192 176.615 99.192C176.06 99.192 175.628 99.1173 175.319 98.968C175.02 98.808 174.796 98.6053 174.647 98.36C174.508 98.1147 174.423 97.8427 174.391 97.544C174.37 97.2347 174.359 96.9253 174.359 96.616V92.664H172.695V91.416H174.359V89.288H175.799V91.416H177.863V92.664ZM179.721 91.416H181.161V92.584H181.193C181.289 92.3813 181.417 92.2 181.577 92.04C181.737 91.8693 181.913 91.7253 182.105 91.608C182.307 91.4907 182.526 91.4 182.761 91.336C182.995 91.2613 183.23 91.224 183.465 91.224C183.699 91.224 183.913 91.256 184.105 91.32L184.041 92.872C183.923 92.84 183.806 92.8133 183.689 92.792C183.571 92.7707 183.454 92.76 183.337 92.76C182.633 92.76 182.094 92.9573 181.721 93.352C181.347 93.7467 181.161 94.36 181.161 95.192V99H179.721V91.416ZM185.675 92.344C186.08 91.9707 186.549 91.6933 187.083 91.512C187.616 91.32 188.149 91.224 188.683 91.224C189.237 91.224 189.712 91.2933 190.107 91.432C190.512 91.5707 190.843 91.7573 191.099 91.992C191.355 92.2267 191.541 92.4987 191.659 92.808C191.787 93.1067 191.851 93.4213 191.851 93.752V97.624C191.851 97.8907 191.856 98.136 191.867 98.36C191.877 98.584 191.893 98.7973 191.915 99H190.635C190.603 98.616 190.587 98.232 190.587 97.848H190.555C190.235 98.3387 189.856 98.6853 189.419 98.888C188.981 99.0907 188.475 99.192 187.899 99.192C187.547 99.192 187.211 99.144 186.891 99.048C186.571 98.952 186.288 98.808 186.043 98.616C185.808 98.424 185.621 98.1893 185.483 97.912C185.344 97.624 185.275 97.2933 185.275 96.92C185.275 96.4293 185.381 96.0187 185.595 95.688C185.819 95.3573 186.117 95.0907 186.491 94.888C186.875 94.6747 187.317 94.5253 187.819 94.44C188.331 94.344 188.875 94.296 189.451 94.296H190.507V93.976C190.507 93.784 190.469 93.592 190.395 93.4C190.32 93.208 190.208 93.0373 190.059 92.888C189.909 92.728 189.723 92.6053 189.499 92.52C189.275 92.424 189.008 92.376 188.699 92.376C188.421 92.376 188.176 92.4027 187.963 92.456C187.76 92.5093 187.573 92.5787 187.403 92.664C187.232 92.7387 187.077 92.8293 186.939 92.936C186.8 93.0427 186.667 93.144 186.539 93.24L185.675 92.344ZM189.739 95.352C189.397 95.352 189.045 95.3733 188.683 95.416C188.331 95.448 188.005 95.5173 187.707 95.624C187.419 95.7307 187.179 95.88 186.987 96.072C186.805 96.264 186.715 96.5093 186.715 96.808C186.715 97.2453 186.859 97.56 187.147 97.752C187.445 97.944 187.845 98.04 188.347 98.04C188.741 98.04 189.077 97.976 189.355 97.848C189.632 97.7093 189.856 97.5333 190.027 97.32C190.197 97.1067 190.32 96.872 190.395 96.616C190.469 96.3493 190.507 96.088 190.507 95.832V95.352H189.739ZM201.54 99H200.1V97.912H200.068C199.79 98.3173 199.406 98.632 198.916 98.856C198.436 99.08 197.94 99.192 197.428 99.192C196.841 99.192 196.308 99.0907 195.828 98.888C195.358 98.6853 194.953 98.4027 194.612 98.04C194.281 97.6773 194.025 97.256 193.844 96.776C193.662 96.296 193.572 95.7733 193.572 95.208C193.572 94.6427 193.662 94.12 193.844 93.64C194.025 93.1493 194.281 92.728 194.612 92.376C194.953 92.0133 195.358 91.7307 195.828 91.528C196.308 91.3253 196.841 91.224 197.428 91.224C197.972 91.224 198.484 91.3413 198.964 91.576C199.444 91.8 199.812 92.1093 200.068 92.504H200.1V86.904H201.54V99ZM197.604 97.848C197.988 97.848 198.334 97.784 198.644 97.656C198.953 97.5173 199.214 97.336 199.428 97.112C199.641 96.8773 199.806 96.6 199.924 96.28C200.041 95.9493 200.1 95.592 200.1 95.208C200.1 94.824 200.041 94.472 199.924 94.152C199.806 93.8213 199.641 93.544 199.428 93.32C199.214 93.0853 198.953 92.904 198.644 92.776C198.334 92.6373 197.988 92.568 197.604 92.568C197.22 92.568 196.873 92.6373 196.564 92.776C196.254 92.904 195.993 93.0853 195.78 93.32C195.566 93.544 195.401 93.8213 195.284 94.152C195.166 94.472 195.108 94.824 195.108 95.208C195.108 95.592 195.166 95.9493 195.284 96.28C195.401 96.6 195.566 96.8773 195.78 97.112C195.993 97.336 196.254 97.5173 196.564 97.656C196.873 97.784 197.22 97.848 197.604 97.848ZM204.809 95.736C204.809 96.0667 204.878 96.3707 205.017 96.648C205.166 96.9147 205.358 97.144 205.593 97.336C205.827 97.528 206.099 97.6773 206.409 97.784C206.718 97.8907 207.038 97.944 207.369 97.944C207.817 97.944 208.206 97.8427 208.537 97.64C208.867 97.4267 209.171 97.1493 209.449 96.808L210.537 97.64C209.737 98.6747 208.617 99.192 207.177 99.192C206.579 99.192 206.035 99.0907 205.545 98.888C205.065 98.6853 204.654 98.408 204.313 98.056C203.982 97.6933 203.726 97.272 203.545 96.792C203.363 96.3013 203.273 95.7733 203.273 95.208C203.273 94.6427 203.369 94.12 203.561 93.64C203.763 93.1493 204.035 92.728 204.377 92.376C204.729 92.0133 205.145 91.7307 205.625 91.528C206.105 91.3253 206.627 91.224 207.193 91.224C207.865 91.224 208.43 91.3413 208.889 91.576C209.358 91.8107 209.742 92.12 210.041 92.504C210.339 92.8773 210.553 93.304 210.681 93.784C210.819 94.2533 210.889 94.7333 210.889 95.224V95.736H204.809ZM209.353 94.584C209.342 94.264 209.289 93.9707 209.193 93.704C209.107 93.4373 208.974 93.208 208.793 93.016C208.611 92.8133 208.382 92.6587 208.105 92.552C207.838 92.4347 207.523 92.376 207.161 92.376C206.809 92.376 206.483 92.4453 206.185 92.584C205.897 92.712 205.651 92.8827 205.449 93.096C205.246 93.3093 205.086 93.5493 204.969 93.816C204.862 94.072 204.809 94.328 204.809 94.584H209.353ZM216.153 91.416H217.769L219.481 97.08H219.513L221.321 91.416H222.841L224.761 97.08H224.793L226.425 91.416H227.945L225.497 99H224.041L222.041 93.336H222.009L220.201 99H218.649L216.153 91.416ZM229.317 91.416H230.757V99H229.317V91.416ZM228.981 88.696C228.981 88.408 229.083 88.1627 229.285 87.96C229.499 87.7467 229.749 87.64 230.037 87.64C230.325 87.64 230.571 87.7467 230.773 87.96C230.987 88.1627 231.093 88.408 231.093 88.696C231.093 88.984 230.987 89.2347 230.773 89.448C230.571 89.6507 230.325 89.752 230.037 89.752C229.749 89.752 229.499 89.6507 229.285 89.448C229.083 89.2347 228.981 88.984 228.981 88.696ZM237.113 92.664H235.049V96.104C235.049 96.3173 235.054 96.5307 235.065 96.744C235.076 96.9467 235.113 97.1333 235.177 97.304C235.252 97.464 235.358 97.5973 235.497 97.704C235.646 97.8 235.86 97.848 236.137 97.848C236.308 97.848 236.484 97.832 236.665 97.8C236.846 97.768 237.012 97.7093 237.161 97.624V98.936C236.99 99.032 236.766 99.096 236.489 99.128C236.222 99.1707 236.014 99.192 235.865 99.192C235.31 99.192 234.878 99.1173 234.569 98.968C234.27 98.808 234.046 98.6053 233.897 98.36C233.758 98.1147 233.673 97.8427 233.641 97.544C233.62 97.2347 233.609 96.9253 233.609 96.616V92.664H231.945V91.416H233.609V89.288H235.049V91.416H237.113V92.664ZM238.971 86.904H240.411V92.584H240.443C240.624 92.1787 240.939 91.8533 241.387 91.608C241.835 91.352 242.352 91.224 242.939 91.224C243.301 91.224 243.648 91.2827 243.979 91.4C244.32 91.5067 244.613 91.6773 244.859 91.912C245.115 92.1467 245.317 92.4507 245.467 92.824C245.616 93.1867 245.691 93.6187 245.691 94.12V99H244.251V94.52C244.251 94.168 244.203 93.8693 244.107 93.624C244.011 93.368 243.883 93.1653 243.723 93.016C243.563 92.856 243.376 92.744 243.163 92.68C242.96 92.6053 242.747 92.568 242.523 92.568C242.224 92.568 241.947 92.616 241.691 92.712C241.435 92.808 241.211 92.9627 241.019 93.176C240.827 93.3787 240.677 93.64 240.571 93.96C240.464 94.28 240.411 94.6587 240.411 95.096V99H238.971V86.904ZM252.875 92.664H251.243V91.416H252.875V89.72C252.875 88.7067 253.067 87.9547 253.451 87.464C253.845 86.9627 254.517 86.712 255.467 86.712C255.627 86.712 255.792 86.7173 255.963 86.728C256.144 86.7387 256.336 86.7707 256.539 86.824L256.379 88.104C256.24 88.0507 256.107 88.0133 255.979 87.992C255.851 87.9707 255.712 87.96 255.563 87.96C255.296 87.96 255.083 88.0027 254.923 88.088C254.763 88.1627 254.635 88.2747 254.539 88.424C254.453 88.5733 254.395 88.7547 254.363 88.968C254.341 89.1707 254.331 89.4053 254.331 89.672V91.416H256.043V92.664H254.315V99H252.875V92.664ZM257.643 91.416H259.083V92.584H259.115C259.211 92.3813 259.339 92.2 259.499 92.04C259.659 91.8693 259.835 91.7253 260.027 91.608C260.229 91.4907 260.448 91.4 260.683 91.336C260.917 91.2613 261.152 91.224 261.387 91.224C261.621 91.224 261.835 91.256 262.027 91.32L261.963 92.872C261.845 92.84 261.728 92.8133 261.611 92.792C261.493 92.7707 261.376 92.76 261.259 92.76C260.555 92.76 260.016 92.9573 259.643 93.352C259.269 93.7467 259.083 94.36 259.083 95.192V99H257.643V91.416ZM263.677 91.416H265.117V99H263.677V91.416ZM263.341 88.696C263.341 88.408 263.442 88.1627 263.645 87.96C263.858 87.7467 264.109 87.64 264.397 87.64C264.685 87.64 264.93 87.7467 265.133 87.96C265.346 88.1627 265.453 88.408 265.453 88.696C265.453 88.984 265.346 89.2347 265.133 89.448C264.93 89.6507 264.685 89.752 264.397 89.752C264.109 89.752 263.858 89.6507 263.645 89.448C263.442 89.2347 263.341 88.984 263.341 88.696ZM268.496 95.736C268.496 96.0667 268.566 96.3707 268.704 96.648C268.854 96.9147 269.046 97.144 269.28 97.336C269.515 97.528 269.787 97.6773 270.096 97.784C270.406 97.8907 270.726 97.944 271.056 97.944C271.504 97.944 271.894 97.8427 272.224 97.64C272.555 97.4267 272.859 97.1493 273.136 96.808L274.224 97.64C273.424 98.6747 272.304 99.192 270.864 99.192C270.267 99.192 269.723 99.0907 269.232 98.888C268.752 98.6853 268.342 98.408 268 98.056C267.67 97.6933 267.414 97.272 267.232 96.792C267.051 96.3013 266.96 95.7733 266.96 95.208C266.96 94.6427 267.056 94.12 267.248 93.64C267.451 93.1493 267.723 92.728 268.064 92.376C268.416 92.0133 268.832 91.7307 269.312 91.528C269.792 91.3253 270.315 91.224 270.88 91.224C271.552 91.224 272.118 91.3413 272.576 91.576C273.046 91.8107 273.43 92.12 273.728 92.504C274.027 92.8773 274.24 93.304 274.368 93.784C274.507 94.2533 274.576 94.7333 274.576 95.224V95.736H268.496ZM273.04 94.584C273.03 94.264 272.976 93.9707 272.88 93.704C272.795 93.4373 272.662 93.208 272.48 93.016C272.299 92.8133 272.07 92.6587 271.792 92.552C271.526 92.4347 271.211 92.376 270.848 92.376C270.496 92.376 270.171 92.4453 269.872 92.584C269.584 92.712 269.339 92.8827 269.136 93.096C268.934 93.3093 268.774 93.5493 268.656 93.816C268.55 94.072 268.496 94.328 268.496 94.584H273.04ZM276.299 91.416H277.739V92.584H277.771C277.952 92.1787 278.267 91.8533 278.715 91.608C279.163 91.352 279.68 91.224 280.267 91.224C280.63 91.224 280.976 91.2827 281.307 91.4C281.648 91.5067 281.942 91.6773 282.187 91.912C282.443 92.1467 282.646 92.4507 282.795 92.824C282.944 93.1867 283.019 93.6187 283.019 94.12V99H281.579V94.52C281.579 94.168 281.531 93.8693 281.435 93.624C281.339 93.368 281.211 93.1653 281.051 93.016C280.891 92.856 280.704 92.744 280.491 92.68C280.288 92.6053 280.075 92.568 279.851 92.568C279.552 92.568 279.275 92.616 279.019 92.712C278.763 92.808 278.539 92.9627 278.347 93.176C278.155 93.3787 278.006 93.64 277.899 93.96C277.792 94.28 277.739 94.6587 277.739 95.096V99H276.299V91.416ZM292.79 99H291.35V97.912H291.318C291.04 98.3173 290.656 98.632 290.166 98.856C289.686 99.08 289.19 99.192 288.678 99.192C288.091 99.192 287.558 99.0907 287.078 98.888C286.608 98.6853 286.203 98.4027 285.862 98.04C285.531 97.6773 285.275 97.256 285.094 96.776C284.912 96.296 284.822 95.7733 284.822 95.208C284.822 94.6427 284.912 94.12 285.094 93.64C285.275 93.1493 285.531 92.728 285.862 92.376C286.203 92.0133 286.608 91.7307 287.078 91.528C287.558 91.3253 288.091 91.224 288.678 91.224C289.222 91.224 289.734 91.3413 290.214 91.576C290.694 91.8 291.062 92.1093 291.318 92.504H291.35V86.904H292.79V99ZM288.854 97.848C289.238 97.848 289.584 97.784 289.894 97.656C290.203 97.5173 290.464 97.336 290.678 97.112C290.891 96.8773 291.056 96.6 291.174 96.28C291.291 95.9493 291.35 95.592 291.35 95.208C291.35 94.824 291.291 94.472 291.174 94.152C291.056 93.8213 290.891 93.544 290.678 93.32C290.464 93.0853 290.203 92.904 289.894 92.776C289.584 92.6373 289.238 92.568 288.854 92.568C288.47 92.568 288.123 92.6373 287.814 92.776C287.504 92.904 287.243 93.0853 287.03 93.32C286.816 93.544 286.651 93.8213 286.534 94.152C286.416 94.472 286.358 94.824 286.358 95.208C286.358 95.592 286.416 95.9493 286.534 96.28C286.651 96.6 286.816 96.8773 287.03 97.112C287.243 97.336 287.504 97.5173 287.814 97.656C288.123 97.784 288.47 97.848 288.854 97.848ZM299.003 93.32C298.832 93.1067 298.619 92.9307 298.363 92.792C298.117 92.6427 297.813 92.568 297.451 92.568C297.109 92.568 296.811 92.6427 296.555 92.792C296.309 92.9307 296.187 93.1387 296.187 93.416C296.187 93.64 296.256 93.8213 296.395 93.96C296.544 94.0987 296.715 94.2107 296.907 94.296C297.109 94.3813 297.323 94.4453 297.547 94.488C297.771 94.5307 297.963 94.568 298.123 94.6C298.432 94.6747 298.72 94.7653 298.987 94.872C299.264 94.9787 299.499 95.1173 299.691 95.288C299.893 95.4587 300.048 95.6667 300.155 95.912C300.272 96.1573 300.331 96.456 300.331 96.808C300.331 97.2347 300.24 97.6027 300.059 97.912C299.877 98.2107 299.643 98.456 299.355 98.648C299.067 98.84 298.736 98.9787 298.363 99.064C298 99.1493 297.632 99.192 297.259 99.192C296.629 99.192 296.075 99.096 295.595 98.904C295.125 98.712 294.704 98.36 294.331 97.848L295.419 96.952C295.653 97.1867 295.915 97.3947 296.203 97.576C296.491 97.7573 296.843 97.848 297.259 97.848C297.44 97.848 297.621 97.832 297.803 97.8C297.995 97.7573 298.16 97.6987 298.299 97.624C298.448 97.5387 298.565 97.4373 298.651 97.32C298.747 97.192 298.795 97.048 298.795 96.888C298.795 96.6747 298.725 96.4987 298.587 96.36C298.459 96.2213 298.299 96.1147 298.107 96.04C297.925 95.9547 297.728 95.8907 297.515 95.848C297.312 95.7947 297.131 95.752 296.971 95.72C296.661 95.6453 296.368 95.56 296.091 95.464C295.813 95.368 295.568 95.24 295.355 95.08C295.141 94.92 294.971 94.7173 294.843 94.472C294.715 94.2267 294.651 93.9227 294.651 93.56C294.651 93.1653 294.731 92.824 294.891 92.536C295.061 92.2373 295.28 91.992 295.547 91.8C295.824 91.608 296.133 91.464 296.475 91.368C296.827 91.272 297.179 91.224 297.531 91.224C298.043 91.224 298.533 91.32 299.003 91.512C299.472 91.704 299.845 92.024 300.123 92.472L299.003 93.32Z" fill="#674EFF"/>
</svg>
